<svg xmlns="http://www.w3.org/2000/svg" version="1.1" xmlns:xlink="http://www.w3.org/1999/xlink" viewBox="0 0 200 200"><rect width="200" height="200" fill="url('#gradient')"></rect><defs><linearGradient id="gradient" gradientTransform="rotate(26 0.5 0.5)"><stop offset="0%" stop-color="#ceaa96"></stop><stop offset="100%" stop-color="#8fa983"></stop></linearGradient></defs><g><g fill="#445272" transform="matrix(8.169126445951337,0,0,8.169126445951337,-8.772347870936287,158.08186498789564)" stroke="#c8512e" stroke-width="0"><path d="M6.69-4.82L4.50-4.82L4.50 0L1.07 0L1.07-14.22L6.75-14.22Q8.38-14.22 9.63-13.62Q10.89-13.02 11.58-11.91Q12.27-10.80 12.27-9.39L12.27-9.39Q12.27-7.31 10.78-6.07Q9.29-4.82 6.69-4.82L6.69-4.82ZM4.50-11.57L4.50-7.47L6.75-7.47Q7.74-7.47 8.27-7.97Q8.79-8.47 8.79-9.38L8.79-9.38Q8.79-10.37 8.25-10.97Q7.71-11.56 6.79-11.57L6.79-11.57L4.50-11.57ZM21.88 0L19.38-5.02L17.52-5.02L17.52 0L14.09 0L14.09-14.22L19.69-14.22Q22.22-14.22 23.64-13.10Q25.07-11.97 25.07-9.92L25.07-9.92Q25.07-8.44 24.47-7.46Q23.87-6.48 22.59-5.88L22.59-5.88L25.56-0.15L25.56 0L21.88 0ZM17.52-11.57L17.52-7.67L19.69-7.67Q20.66-7.67 21.16-8.18Q21.65-8.69 21.65-9.61Q21.65-10.53 21.15-11.05Q20.65-11.57 19.69-11.57L19.69-11.57L17.52-11.57Z"></path></g></g></svg>